<svg id="SCENE_1" xmlns="http://www.w3.org/2000/svg" viewBox="0 0 1125 2436"><defs><style>.cls-1{font-size:175.56px;font-family:StolzlDisplay-Medium, Stolzl Display;font-weight:500;}.cls-2{letter-spacing:-0.02em;}.cls-3{fill:none;stroke:#000;stroke-miterlimit:10;stroke-width:9px;}</style></defs><text class="cls-1" transform="translate(107.16 272.9)">TEH<tspan x="0" y="210.67">RAP</tspan><tspan class="cls-2" x="362.18" y="210.67">T</tspan><tspan x="462.42" y="210.67">OR</tspan></text><g id="RAPTOR"><line class="cls-3" x1="729.21" y1="866.65" x2="841.46" y2="827.69"/><polyline class="cls-3" points="873.29 864.03 921.66 799.32 840.11 753.88 864.57 676.31 1000.5 683.1 1000.5 629.41 810.2 575.72 774.86 680.38 547.86 767.38 283.98 646.4"/><polyline class="cls-3" points="772.14 776.32 744.7 932.28 655.24 988.94 721.84 1042.04"/><line class="cls-3" x1="655.24" y1="964.48" x2="731.36" y2="1028.36"/><line class="cls-3" x1="678.35" y1="946.81" x2="750.39" y2="1017.49"/><polyline class="cls-3" points="678.35 790.46 687.86 903.41 599.51 971.27 655.24 1028.36"/><line class="cls-3" x1="819.07" y1="871.65" x2="846.5" y2="807.69"/><line class="cls-3" x1="829.61" y1="878.72" x2="858.53" y2="815.47"/><text/><line class="cls-3" x1="838.97" y1="638.25" x2="1024.1" y2="668.15"/><path class="cls-3" d="M865.07,638.25a18.35,18.35,0,1,0,18.35-18.35A18.34,18.34,0,0,0,865.07,638.25Z"/><line class="cls-3" x1="803.29" y1="790.46" x2="865.07" y2="830.63"/><line class="cls-3" x1="578.33" y1="866.65" x2="655.24" y2="853.14"/><line class="cls-3" x1="578.33" y1="866.65" x2="283.98" y2="646.4"/></g></svg>