<svg xmlns="http://www.w3.org/2000/svg" viewBox="0 0 2436.82 2026"><g id="SCENE_1"><text transform="translate(1519.16 155.9)" style="font-size:175.5603790283203px;font-family:StolzlDisplay-Medium, Stolzl Display;font-weight:500">TEH<tspan x="0" y="210.67">RAP</tspan><tspan x="362.18" y="210.67" style="letter-spacing:-0.02499251446587618em">T</tspan><tspan x="462.42" y="210.67">OR</tspan></text><g id="RAPTOR"><line x1="2141.21" y1="749.65" x2="2253.46" y2="710.69" style="fill:none;stroke:#000;stroke-miterlimit:10;stroke-width:9px"/><polyline points="2285.3 747.03 2333.66 682.32 2252.11 636.88 2276.57 559.31 2412.5 566.1 2412.5 512.41 2222.2 458.72 2186.86 563.38 1959.86 650.38 1695.98 529.4" style="fill:none;stroke:#000;stroke-miterlimit:10;stroke-width:9px"/><polyline points="2184.14 659.32 2156.7 815.28 2067.24 871.94 2133.84 925.03" style="fill:none;stroke:#000;stroke-miterlimit:10;stroke-width:9px"/><line x1="2067.24" y1="847.48" x2="2143.36" y2="911.36" style="fill:none;stroke:#000;stroke-miterlimit:10;stroke-width:9px"/><line x1="2090.35" y1="829.81" x2="2162.39" y2="900.49" style="fill:none;stroke:#000;stroke-miterlimit:10;stroke-width:9px"/><polyline points="2090.35 673.46 2099.86 786.41 2011.51 854.27 2067.24 911.36" style="fill:none;stroke:#000;stroke-miterlimit:10;stroke-width:9px"/><line x1="2231.07" y1="754.65" x2="2258.5" y2="690.69" style="fill:none;stroke:#000;stroke-miterlimit:10;stroke-width:9px"/><line x1="2241.61" y1="761.72" x2="2270.53" y2="698.47" style="fill:none;stroke:#000;stroke-miterlimit:10;stroke-width:9px"/><text x="-90" y="-117"/><line x1="2250.97" y1="521.25" x2="2436.1" y2="551.15" style="fill:none;stroke:#000;stroke-miterlimit:10;stroke-width:9px"/><path d="M2367.07,638.25a18.35,18.35,0,1,0,18.35-18.35A18.34,18.34,0,0,0,2367.07,638.25Z" transform="translate(-90 -117)" style="fill:none;stroke:#000;stroke-miterlimit:10;stroke-width:9px"/><line x1="2215.29" y1="673.46" x2="2277.07" y2="713.63" style="fill:none;stroke:#000;stroke-miterlimit:10;stroke-width:9px"/><line x1="1990.33" y1="749.65" x2="2067.24" y2="736.14" style="fill:none;stroke:#000;stroke-miterlimit:10;stroke-width:9px"/><path d="M2049.86,767.38" transform="translate(-90 -117)" style="fill:none;stroke:#000;stroke-miterlimit:10;stroke-width:9px"/><line x1="1990.33" y1="749.65" x2="1695.98" y2="529.4" style="fill:none;stroke:#000;stroke-miterlimit:10;stroke-width:9px"/></g></g><g id="ENTER"><circle id="c7" cx="155" cy="134" r="99" style="fill:none;stroke:#000;stroke-miterlimit:10;stroke-width:10px"/><circle id="c6" cx="477" cy="299" r="46" style="fill:none;stroke:#000;stroke-miterlimit:10;stroke-width:10px"/><circle id="c5" cx="635" cy="1137" r="258" style="fill:none;stroke:#000;stroke-miterlimit:10;stroke-width:10px"/><circle id="c4" cx="139" cy="900" r="53" style="fill:none;stroke:#000;stroke-miterlimit:10;stroke-width:10px"/><circle id="c3" cx="154.5" cy="1509.5" r="149.5" style="fill:none;stroke:#000;stroke-miterlimit:10;stroke-width:10px"/><circle id="c2" cx="654" cy="1840" r="181" style="fill:none;stroke:#000;stroke-miterlimit:10;stroke-width:10px"/><circle id="c1" cx="870.5" cy="68.5" r="63.5" style="fill:none;stroke:#000;stroke-miterlimit:10;stroke-width:10px"/><g id="button-enter"><text transform="translate(191.78 602.9)" style="font-size:175.5603790283203px;font-family:StolzlDisplay-Medium, Stolzl Display;font-weight:500">ENTER</text><line x1="147" y1="640" x2="807" y2="640" style="fill:none;stroke:#000;stroke-miterlimit:10;stroke-width:10px"/><line x1="147" y1="440" x2="807" y2="440" style="fill:none;stroke:#000;stroke-miterlimit:10;stroke-width:10px"/><rect x="111" y="431" width="724" height="242" style="fill:none;stroke:#000;stroke-miterlimit:10;stroke-width:10px;opacity:0"/></g></g></svg>